<?xml version="1.0" standalone="no"?>
<!DOCTYPE svg PUBLIC "-//W3C//DTD SVG 20010904//EN"
 "http://www.w3.org/TR/2001/REC-SVG-20010904/DTD/svg10.dtd">
<svg version="1.0" xmlns="http://www.w3.org/2000/svg"
 width="512.000000pt" height="512.000000pt" viewBox="0 0 512.000000 512.000000"
 preserveAspectRatio="xMidYMid meet">

<g transform="translate(0.000000,512.000000) scale(0.100000,-0.100000)"
fill="#000000" stroke="none">
<path d="M3000 4873 c-80 -111 -143 -244 -172 -359 -33 -132 -31 -341 5 -477
88 -334 339 -639 663 -804 205 -105 347 -138 589 -138 200 1 319 27 476 106
157 78 301 216 400 384 22 38 20 37 -49 -27 -82 -75 -192 -134 -317 -170 -71
-20 -101 -23 -260 -22 -156 0 -196 4 -297 26 -274 62 -494 184 -684 380 -169
174 -273 358 -329 582 -46 183 -41 362 14 524 16 45 28 82 26 82 -1 0 -31 -39
-65 -87z"/>
<path d="M1884 4557 c-181 -256 -209 -305 -267 -473 -61 -176 -72 -253 -72
-494 1 -184 4 -230 23 -318 130 -596 548 -1114 1127 -1393 293 -141 488 -183
850 -182 509 2 902 147 1219 453 138 133 252 284 330 437 44 88 34 102 -26 36
-488 -544 -1329 -654 -2088 -273 -565 283 -987 819 -1100 1395 -27 139 -37
358 -21 490 18 149 68 332 117 428 34 65 3 29 -92 -106z"/>
<path d="M524 4055 c-184 -233 -268 -367 -332 -527 -101 -254 -134 -433 -136
-723 -1 -271 24 -452 100 -702 217 -719 746 -1344 1444 -1706 279 -145 512
-225 774 -265 152 -23 202 -26 456 -26 292 -1 363 5 565 45 655 131 1209 534
1548 1124 92 160 87 162 -56 20 -145 -143 -261 -230 -425 -317 -373 -200 -831
-291 -1302 -258 -426 30 -757 122 -1130 317 -268 140 -505 316 -735 547 -426
428 -684 929 -771 1501 -23 152 -23 462 0 610 30 191 95 415 157 538 11 20 18
37 16 37 -2 0 -80 -97 -173 -215z"/>
</g>
</svg>
