<?xml version="1.0" encoding="UTF-8"?>
<svg version="1.1" xmlns="http://www.w3.org/2000/svg" width="512" height="512">
<path d="M0 0 C1.01823853 0.00215515 2.03647705 0.0043103 3.08557129 0.00653076 C17.7097884 0.05623391 32.00304638 0.37042012 46.375 3.3125 C47.37160645 3.50585938 48.36821289 3.69921875 49.39501953 3.8984375 C97.79648057 13.46213524 141.99059771 35.87987765 177.375 70.3125 C178.37877686 71.27760498 178.37877686 71.27760498 179.40283203 72.26220703 C188.33991207 80.87657599 196.74206664 89.58564609 204.10107422 99.59423828 C205.39750666 101.34285682 206.72788718 103.06078803 208.06640625 104.77734375 C215.93067241 114.9920598 222.3161092 125.94975258 228.375 137.3125 C229.03846436 138.55314209 229.03846436 138.55314209 229.71533203 139.81884766 C241.23204842 161.72199262 248.9030584 186.01309889 253.375 210.3125 C253.53581055 211.11316895 253.69662109 211.91383789 253.86230469 212.73876953 C259.3544441 240.81662453 259.10896692 274.30227935 253.375 302.3125 C253.18164062 303.30910645 252.98828125 304.30571289 252.7890625 305.33251953 C244.67028127 346.42132055 227.30084885 383.51549494 201.375 416.3125 C200.56289063 417.35019531 199.75078125 418.38789063 198.9140625 419.45703125 C186.24907313 435.01858759 171.69874403 449.61464417 155.375 461.3125 C154.02974408 462.30180622 152.68470229 463.29140366 151.33984375 464.28125 C120.03306909 487.08129792 84.47487825 502.30078684 46.375 509.3125 C45.57433105 509.47331055 44.77366211 509.63412109 43.94873047 509.79980469 C15.88172956 515.289821 -17.62684244 515.06193715 -45.625 509.3125 C-46.63755859 509.11382324 -47.65011719 508.91514648 -48.69335938 508.71044922 C-89.78600049 500.49315205 -126.72136417 483.05232803 -159.625 457.3125 C-160.16415039 456.89339355 -160.70330078 456.47428711 -161.25878906 456.04248047 C-177.49886305 443.27946125 -192.56962343 428.08823511 -204.625 411.3125 C-205.4887527 410.14261544 -206.35335469 408.9733575 -207.21875 407.8046875 C-222.36207742 387.1786757 -234.4442165 364.56952873 -242.625 340.3125 C-243.03806396 339.08998535 -243.03806396 339.08998535 -243.45947266 337.84277344 C-246.69755506 328.07192323 -249.22985473 318.19031263 -251.375 308.125 C-251.57375732 307.20033936 -251.77251465 306.27567871 -251.97729492 305.32299805 C-255.26999027 289.11638823 -256.00030278 273.1821298 -255.9375 256.6875 C-255.93534485 255.66926147 -255.9331897 254.65102295 -255.93096924 253.60192871 C-255.88126609 238.9777116 -255.56707988 224.68445362 -252.625 210.3125 C-252.33496094 208.81759033 -252.33496094 208.81759033 -252.0390625 207.29248047 C-244.41040781 168.68418872 -228.69757683 132.53083121 -204.625 101.3125 C-203.66013672 100.05953125 -203.66013672 100.05953125 -202.67578125 98.78125 C-188.57295377 80.82715922 -172.21896589 63.63892592 -153.625 50.3125 C-153.08327148 49.920625 -152.54154297 49.52875 -151.98339844 49.125 C-121.06865283 26.84146078 -86.69401468 11.73961685 -49.375 4.0625 C-48.64442383 3.91127686 -47.91384766 3.76005371 -47.16113281 3.60424805 C-31.46684491 0.57387475 -15.9450952 -0.06071045 0 0 Z M-65.625 40.3125 C-66.87796875 40.67988281 -68.1309375 41.04726563 -69.421875 41.42578125 C-125.28104207 58.86678728 -171.99472451 100.25931261 -199.625 151.3125 C-200.00221191 152.00939941 -200.37942383 152.70629883 -200.76806641 153.42431641 C-215.29094615 180.83963556 -224.56519578 213.37992062 -224.86328125 244.46484375 C-224.87302979 245.31429565 -224.88277832 246.16374756 -224.89282227 247.03894043 C-225.06696734 266.15223292 -224.80149107 284.56598259 -220.625 303.3125 C-220.34414551 304.59423096 -220.34414551 304.59423096 -220.05761719 305.90185547 C-218.80417092 311.44494555 -217.30520128 316.88451322 -215.625 322.3125 C-215.26414307 323.4895752 -215.26414307 323.4895752 -214.89599609 324.69042969 C-204.35292309 358.38758262 -185.77871678 388.43938952 -161.21777344 413.67285156 C-159.8011962 415.13111838 -158.40313085 416.60731656 -157.0078125 418.0859375 C-150.44012378 424.91202709 -143.1903129 430.65030728 -135.625 436.3125 C-135.05765137 436.74062988 -134.49030273 437.16875977 -133.90576172 437.60986328 C-86.62710869 473.09274495 -26.67007332 488.04256767 31.8125 480.0625 C79.60386107 472.9549762 123.1280267 451.59024872 157.73535156 417.90527344 C159.19361838 416.4886962 160.66981656 415.09063085 162.1484375 413.6953125 C168.97452709 407.12762378 174.71280728 399.8778129 180.375 392.3125 C180.80312988 391.74515137 181.23125977 391.17780273 181.67236328 390.59326172 C203.19211016 361.91958591 218.11288347 327.86412169 223.375 292.3125 C223.63337646 290.73601685 223.63337646 290.73601685 223.89697266 289.12768555 C225.52524314 278.40183432 225.77300536 267.83138608 225.75 257 C225.74968277 255.61794876 225.74968277 255.61794876 225.74935913 254.20797729 C225.71444701 238.92093462 224.7098073 224.28105187 221.375 209.3125 C221.18776367 208.4580127 221.00052734 207.60352539 220.80761719 206.72314453 C219.55417092 201.18005445 218.05520128 195.74048678 216.375 190.3125 C216.13442871 189.5277832 215.89385742 188.74306641 215.64599609 187.93457031 C204.81463337 153.31600265 185.56656326 123.17042568 160.375 97.3125 C159.47652344 96.3740625 158.57804687 95.435625 157.65234375 94.46875 C100.81779053 36.10299646 11.26716921 17.1323064 -65.625 40.3125 Z " fill="#000000" transform="translate(255.625,-0.3125)"/>
<path d="M0 0 C5.32573716 5.19584113 7.17621504 11.78508518 8.484375 18.9375 C8.63408752 19.70304199 8.78380005 20.46858398 8.93804932 21.25732422 C9.40721552 23.66957986 9.86011558 26.08454724 10.3125 28.5 C10.63043331 30.1499475 10.94943432 31.79968964 11.26953125 33.44921875 C12.04620047 37.46388078 12.80831221 41.48105664 13.5625 45.5 C14.79436934 41.83423601 16.02232694 38.16717119 17.25 34.5 C17.61649658 33.41033936 17.98299316 32.32067871 18.3605957 31.19799805 C19.99145343 26.32482702 21.60557553 21.45715814 23.03125 16.51953125 C23.24177002 15.79830078 23.45229004 15.07707031 23.66918945 14.33398438 C24.21302633 12.44118517 24.73806898 10.54301441 25.26171875 8.64453125 C27.2410741 3.85960315 30.32112422 1.32758385 34.5625 -1.5 C40.01883631 -2.1771211 44.98312924 -2.17687318 50.0625 0 C56.51432964 6.45182964 58.5208242 16.04635796 61.13671875 24.55566406 C61.81605181 26.76153313 62.50883247 28.96286183 63.203125 31.1640625 C63.64142617 32.57266763 64.07895406 33.98151365 64.515625 35.390625 C64.82490936 36.37195404 64.82490936 36.37195404 65.14044189 37.37310791 C66.13065517 40.62210212 66.5625 43.05439478 66.5625 46.5 C67.2225 46.5 67.8825 46.5 68.5625 46.5 C68.6251001 45.67169678 68.6251001 45.67169678 68.68896484 44.82666016 C69.36169888 37.07845762 70.70055284 29.5043624 72.1875 21.875 C72.41050781 20.60398438 72.63351562 19.33296875 72.86328125 18.0234375 C74.38080333 10.31538884 76.21802086 4.49312143 82.5625 -0.5 C88.14490452 -2.36080151 93.61381969 -2.43825348 98.9375 0.125 C105.21190548 5.80184306 105.21190548 5.80184306 105.85467529 10.74856567 C106.033411 21.05857888 103.82152555 30.88247364 101.765625 40.9296875 C101.37101444 42.89343864 100.97704356 44.85731843 100.5836792 46.82131958 C99.76071493 50.91600257 98.92926072 55.00884475 98.09179688 59.10058594 C97.02112826 64.33583907 95.9732359 69.57535401 94.93175125 74.81648064 C94.12458345 78.8642308 93.30480828 82.90934894 92.4812851 86.9538002 C92.08974752 88.88503036 91.70225269 90.81708486 91.31894684 92.74996567 C90.7818242 95.44924286 90.22763327 98.14447103 89.66894531 100.83935547 C89.51501312 101.631147 89.36108093 102.42293854 89.20248413 103.23872375 C87.68018214 110.41376235 84.62062748 115.195541 78.5625 119.5 C73.94788592 121.80730704 67.29622038 121.18343009 62.390625 119.95703125 C56.7598313 117.30358201 54.83417671 111.97490722 52.5625 106.5 C50.41622833 100.40764031 48.6350249 94.19487339 46.8125 88 C46.07394837 85.51923633 45.33284175 83.03925577 44.590271 80.55969238 C44.1321733 79.02694536 43.67686403 77.49336153 43.22467041 75.9588623 C42.11362722 72.1460695 42.11362722 72.1460695 40.5625 68.5 C40.00320801 70.36132568 40.00320801 70.36132568 39.43261719 72.26025391 C38.04113954 76.88149834 36.63654037 81.4986682 35.22802734 86.11474609 C34.62127163 88.10975889 34.01803706 90.10584624 33.41845703 92.10302734 C32.5539345 94.98046802 31.67664834 97.85375333 30.796875 100.7265625 C30.53316101 101.61429352 30.26944702 102.50202454 29.9977417 103.41665649 C28.00864979 109.84695436 25.97106301 114.59322095 20.5625 118.875 C15.54562988 121.45386628 10.03633806 121.25369954 4.5625 120.5 C1.0625 118.8125 1.0625 118.8125 -1.4375 116.5 C-2.159375 115.84 -2.88125 115.18 -3.625 114.5 C-9.23836732 105.20890926 -10.08655571 91.82450642 -12.23046875 81.21484375 C-12.40423853 80.35697329 -12.57800831 79.49910282 -12.75704384 78.61523628 C-13.67456567 74.08391034 -14.58857991 69.55189317 -15.49975586 65.01928711 C-16.4353788 60.36887345 -17.38354541 55.72110959 -18.33451366 51.07381344 C-19.06999044 47.46762468 -19.79594131 43.85956431 -20.51940346 40.25094795 C-20.86468655 38.53720925 -21.21349468 36.82417647 -21.56606102 35.11192131 C-26.29745455 12.09163638 -26.29745455 12.09163638 -22.625 5 C-21.903125 4.175 -21.18125 3.35 -20.4375 2.5 C-19.921875 1.901875 -19.40625 1.30375 -18.875 0.6875 C-13.97113957 -3.36351514 -5.39725477 -2.35516572 0 0 Z " fill="#000000" transform="translate(331.4375,196.5)"/>
<path d="M0 0 C1.24330078 -0.05607422 1.24330078 -0.05607422 2.51171875 -0.11328125 C7.21064448 0.60106032 10.73334395 2.50270639 13.83032227 6.05200195 C15.38416316 8.19833154 16.82592009 10.39047746 18.25 12.625 C19.374903 14.32904941 20.50127428 16.03213022 21.62890625 17.734375 C22.51666748 19.08692383 22.51666748 19.08692383 23.42236328 20.46679688 C26.76115046 25.49352167 30.23004456 30.42950537 33.6875 35.375 C34.98708103 37.24081447 36.28656348 39.10669761 37.5859375 40.97265625 C41.1552452 46.09028949 44.73234954 51.20244759 48.3125 56.3125 C48.31614563 55.76428085 48.31979126 55.21606171 48.32354736 54.65122986 C48.36549147 48.9240441 48.43491953 43.19765088 48.52001953 37.47094727 C48.54817349 35.33626244 48.56941565 33.20147444 48.58349609 31.06665039 C48.60500253 27.99051306 48.65169337 24.91560886 48.703125 21.83984375 C48.70496796 20.41755714 48.70496796 20.41755714 48.70684814 18.96653748 C48.83970981 12.89971945 49.78591329 9.28875242 53.3125 4.3125 C56.97952818 0.82435124 59.88646351 0.01970099 64.8125 -0.1875 C69.71207754 -0.00110303 72.58791458 0.96037312 76.3125 4.3125 C79.36466995 7.78565891 80.43375564 10.76020291 80.45294189 15.35334778 C80.45865204 16.17338791 80.46436218 16.99342804 80.47024536 17.83831787 C80.47192215 19.18255829 80.47192215 19.18255829 80.47363281 20.55395508 C80.48108017 21.97393044 80.48108017 21.97393044 80.48867798 23.42259216 C80.50330111 26.55907922 80.51010196 29.69551569 80.515625 32.83203125 C80.52137644 35.01055401 80.52713417 37.18907676 80.53289795 39.36759949 C80.54340844 43.93818396 80.54925076 48.50875084 80.55273438 53.0793457 C80.55821842 58.93376842 80.58224449 64.78795848 80.61070633 70.64230824 C80.62933734 75.14361753 80.63453857 79.64487084 80.63607025 84.14621544 C80.63909638 86.30436156 80.64712354 88.46250671 80.66025543 90.62061501 C80.6773249 93.6415434 80.6754333 96.66190417 80.66894531 99.68286133 C80.6781601 100.57294891 80.68737488 101.4630365 80.6968689 102.38009644 C80.6581355 108.14230205 79.87551414 112.56687925 75.77734375 116.95703125 C71.56943359 120.1748449 69.39618874 121.4868585 64.125 121.625 C62.74248047 121.68107422 62.74248047 121.68107422 61.33203125 121.73828125 C55.63001939 120.93424594 51.85894416 118.36112377 48.4609375 113.87109375 C47.52182225 112.50735982 46.59803184 111.13298209 45.6875 109.75 C45.1824292 109.00911133 44.6773584 108.26822266 44.15698242 107.50488281 C43.08311678 105.92713271 42.01546261 104.34513951 40.95361328 102.75927734 C38.75220936 99.47714851 36.51211447 96.22219211 34.27392578 92.96508789 C32.71511526 90.69380357 31.16334007 88.41788745 29.61328125 86.140625 C25.54602509 80.17514321 21.42732741 74.24521273 17.3125 68.3125 C17.29268066 69.48756104 17.27286133 70.66262207 17.25244141 71.87329102 C17.17606404 76.25501032 17.08739723 80.63641141 16.99511719 85.01782227 C16.95695975 86.91001071 16.92208433 88.80226842 16.890625 90.69458008 C16.84468577 93.42293972 16.78674035 96.15082793 16.7265625 98.87890625 C16.70923569 100.13713951 16.70923569 100.13713951 16.69155884 101.42079163 C16.5344048 107.75056294 16.17252433 113.16631809 11.875 118.125 C6.90238498 122.36991526 3.81418212 122.91370367 -2.59375 122.8359375 C-7.57924693 121.99243171 -10.62755491 119.22755303 -13.6875 115.3125 C-14.60277393 112.56667822 -14.81661801 110.94121333 -14.82794189 108.11306763 C-14.83650711 106.83035477 -14.83650711 106.83035477 -14.84524536 105.52172852 C-14.84636322 104.58659424 -14.84748108 103.65145996 -14.84863281 102.68798828 C-14.85359772 101.70071747 -14.85856262 100.71344666 -14.86367798 99.69625854 C-14.87830203 96.42510282 -14.88510171 93.15399557 -14.890625 89.8828125 C-14.89637585 87.61221312 -14.90213359 85.34161375 -14.90789795 83.0710144 C-14.91840835 78.30792006 -14.9242509 73.5448426 -14.92773438 68.78173828 C-14.93322193 62.67611669 -14.95725556 56.57071779 -14.98570633 50.46516609 C-15.00432144 45.77431585 -15.00953769 41.0835194 -15.01107025 36.39263535 C-15.01409939 34.14155738 -15.02213666 31.89048041 -15.03525543 29.63943863 C-15.05229352 26.49138641 -15.05044108 23.34388029 -15.04394531 20.19580078 C-15.0531601 19.26471497 -15.06237488 18.33362915 -15.0718689 17.37432861 C-15.04049636 12.52531421 -14.86332023 9.23490722 -11.6875 5.3125 C-7.71214074 1.82194065 -5.2728678 0.15342188 0 0 Z " fill="#000000" transform="translate(89.6875,194.6875)"/>
<path d="M0 0 C11.39755676 6.67957703 19.6788562 16.00016855 23.56069946 28.85707092 C24.05862433 31.28597229 24.15645516 33.54163434 24.19287109 36.02124023 C24.20893402 37.02005722 24.22499695 38.01887421 24.24154663 39.04795837 C24.28639529 43.63344418 24.32710569 48.21878873 24.35009766 52.80444336 C24.36658945 55.2104667 24.39378857 57.61644243 24.43212891 60.0222168 C24.73123228 78.91124519 23.92062771 92.40239837 10.41796875 106.671875 C-0.11242041 116.61297231 -12.06420358 118.56961837 -25.859375 118.33984375 C-38.23559049 117.79356757 -47.99299469 111.57161964 -56.25 102.6875 C-64.01461483 93.08957333 -66.30970385 82.82249862 -66.3359375 70.80078125 C-66.3425943 69.72934372 -66.3492511 68.65790619 -66.35610962 67.55400085 C-66.3662057 65.29228422 -66.37092758 63.03053798 -66.37060547 60.76879883 C-66.37496402 57.34079778 -66.41127748 53.91410056 -66.44921875 50.48632812 C-66.45509074 48.27865019 -66.45905757 46.0709662 -66.4609375 43.86328125 C-66.47530853 42.85348709 -66.48967957 41.84369293 -66.50448608 40.80329895 C-66.4236167 27.95598624 -61.89184565 17.33601866 -53.12109375 8 C-39.53502725 -4.73522193 -16.72747288 -9.29608739 0 0 Z M-32 31 C-35.21459309 36.0792397 -35.45437813 40.26989585 -35.43359375 46.08984375 C-35.4388356 46.95259415 -35.44407745 47.81534454 -35.44947815 48.70423889 C-35.4558785 50.52213468 -35.45458717 52.340072 -35.44604492 54.15795898 C-35.4375362 56.92572425 -35.46632063 59.69142269 -35.49804688 62.45898438 C-35.49965925 64.23177022 -35.49908065 66.00455969 -35.49609375 67.77734375 C-35.50732773 68.5973436 -35.51856171 69.41734344 -35.53013611 70.26219177 C-35.46150906 75.97518144 -34.25530804 79.2843598 -31 84 C-27.23119582 87.43626263 -23.34107394 87.51209617 -18.4375 87.3515625 C-13.87251962 86.69315187 -11.1702228 84.47469095 -8.36914062 80.94482422 C-6.44128739 76.79828967 -6.53229593 73.09294634 -6.53125 68.5703125 C-6.52363647 67.66175507 -6.51602295 66.75319763 -6.50817871 65.81710815 C-6.49739585 63.89909608 -6.49451723 61.98102537 -6.49902344 60.06298828 C-6.4999946 57.14124682 -6.45837778 54.22214307 -6.4140625 51.30078125 C-6.40885407 49.43229711 -6.40616733 47.5638039 -6.40625 45.6953125 C-6.38985474 44.82842804 -6.37345947 43.96154358 -6.35656738 43.06838989 C-6.42722236 36.81030109 -7.88988603 33.73581893 -12 29 C-18.17659449 24.64994707 -26.70876019 26.09592408 -32 31 Z " fill="#000000" transform="translate(261,199)"/>
<path d="M0 0 C4.7344316 1.91391916 7.72684393 5.45368786 10 10 C10.59031201 15.67607706 10.35449226 20.22238982 7 25 C2.57435992 29.4541926 -2.37354158 33.30748317 -7.25 37.25 C-13.77119124 42.54732622 -19.91076304 48.21702643 -26 54 C-26.82757813 54.78503906 -27.65515625 55.57007813 -28.5078125 56.37890625 C-33.21917304 60.96714762 -37.41389095 65.82841986 -41.53515625 70.94921875 C-44.40288381 74.49865651 -47.30934325 78.01087847 -50.25 81.5 C-50.74540283 82.09965576 -51.24080566 82.69931152 -51.7512207 83.31713867 C-55.10897109 87.28128286 -58.13184593 90.49545943 -63.46484375 91.43359375 C-70.25258821 91.44431689 -73.6297084 89.90542379 -78.8125 85.4375 C-81.74678229 81.88547407 -81.45935658 77.26653574 -81.390625 72.890625 C-80.71319055 67.87761004 -78.17420602 64.81515146 -75 61 C-74.39671875 60.26112549 -74.39671875 60.26112549 -73.78125 59.50732422 C-71.01856129 56.12899171 -68.19367195 52.81025985 -65.32568359 49.52099609 C-64.19572282 48.22455859 -63.07535306 46.91977193 -61.95703125 45.61328125 C-50.76724578 32.81538289 -38.6126917 20.21986277 -25 10 C-23.91372447 9.1697129 -22.82780552 8.33895913 -21.7421875 7.5078125 C-13.96859198 1.59428264 -9.93465377 -0.79189269 0 0 Z " fill="#000000" transform="translate(81,0)"/>
<path d="M0 0 C4.65702344 2.45552145 8.31667974 4.95003921 10 10 C10.90838889 17.01414206 10.33202621 21.88846662 6.03125 27.55859375 C5.3609375 28.36425781 4.690625 29.16992188 4 30 C3.39671875 30.73887451 3.39671875 30.73887451 2.78125 31.49267578 C0.01856129 34.87100829 -2.80632805 38.18974015 -5.67431641 41.47900391 C-6.80427718 42.77544141 -7.92464694 44.08022807 -9.04296875 45.38671875 C-20.23275422 58.18461711 -32.3873083 70.78013723 -46 81 C-47.08627553 81.8302871 -48.17219448 82.66104087 -49.2578125 83.4921875 C-56.95255481 89.34573214 -61.11628343 91.9925656 -71 91 C-75.85901474 88.70301121 -78.66907123 85.84115976 -81 81 C-81.78246162 76.09763842 -81.80331529 72.46145311 -79.37890625 68.05078125 C-76.68818554 64.60011972 -73.80034411 61.95797816 -70.4375 59.1875 C-69.50333252 58.40004395 -69.50333252 58.40004395 -68.55029297 57.59667969 C-64.9594524 54.58085202 -61.30351514 51.65820393 -57.625 48.75 C-46.17713747 39.43591067 -36.09975712 28.58150906 -27 17 C-25.12383281 14.6708705 -23.22279593 12.36367731 -21.3125 10.0625 C-20.65254028 9.24616089 -20.65254028 9.24616089 -19.97924805 8.41333008 C-14.17562286 1.4422403 -8.97234482 -1.47350704 0 0 Z " fill="#000000" transform="translate(502,421)"/>
</svg>
