<?xml version="1.0" standalone="no"?>
<!DOCTYPE svg PUBLIC "-//W3C//DTD SVG 20010904//EN"
 "http://www.w3.org/TR/2001/REC-SVG-20010904/DTD/svg10.dtd">
<svg version="1.0" xmlns="http://www.w3.org/2000/svg"
 width="512.000000pt" height="512.000000pt" viewBox="0 0 512.000000 512.000000"
 preserveAspectRatio="xMidYMid meet">

<g transform="translate(0.000000,512.000000) scale(0.100000,-0.100000)"
fill="#000000" stroke="none">
<path d="M0 2560 l0 -2560 673 0 674 0 65 88 c35 48 79 109 97 135 44 65 131
247 131 275 0 12 5 22 10 22 33 0 -35 -245 -90 -327 -17 -24 -30 -50 -30 -58
0 -8 -8 -20 -17 -27 -10 -7 -19 -19 -21 -26 -1 -7 -14 -25 -27 -40 -14 -15
-25 -30 -25 -34 0 -5 828 -8 1840 -8 l1840 0 0 2560 0 2560 -2560 0 -2560 0 0
-2560z m3212 2519 c26 -7 43 -19 53 -39 17 -33 20 -65 3 -35 -21 37 -49 57
-89 62 -27 4 -36 9 -27 14 16 11 16 11 60 -2z m-502 -184 c80 -8 158 -18 174
-23 l30 -8 -33 -23 c-31 -22 -40 -23 -237 -25 -137 -1 -207 -5 -212 -12 -4 -6
-23 -14 -43 -18 -21 -4 -43 -14 -50 -23 -13 -15 -12 -15 8 -5 30 16 38 15 23
-3 -7 -9 -11 -18 -8 -20 3 -3 10 1 17 9 6 8 21 12 31 9 22 -6 28 -23 8 -23 -6
0 -9 -3 -6 -6 4 -3 16 -1 27 5 17 9 20 9 15 -3 -4 -11 0 -13 18 -9 18 4 20 3
8 -6 -12 -9 -9 -11 15 -11 24 0 27 -2 15 -11 -12 -8 -9 -9 13 -5 15 4 27 2 27
-3 0 -11 55 -31 86 -31 29 0 39 -16 24 -36 -10 -11 -16 -12 -27 -2 -12 10 -14
9 -12 -7 5 -26 -8 -45 -25 -39 -8 3 -12 14 -8 26 4 17 2 20 -11 15 -10 -4 -20
1 -26 11 -10 16 -10 16 -11 0 0 -23 -16 -23 -24 -1 -6 15 -8 15 -16 3 -7 -11
-12 -7 -24 20 -15 34 -15 34 -16 8 0 -35 -17 -37 -26 -3 -3 14 -10 25 -16 25
-5 0 -7 -10 -3 -22 5 -20 4 -21 -5 -5 -12 19 -35 24 -24 5 5 -9 2 -9 -9 1 -9
7 -17 10 -17 5 0 -5 -10 2 -21 16 l-20 25 6 -25 6 -25 -21 25 c-17 21 -19 22
-14 5 4 -15 1 -13 -10 5 -10 16 -15 19 -16 10 0 -13 -1 -13 -10 0 -8 13 -10
12 -10 -3 0 -10 -4 -16 -10 -12 -5 3 -8 22 -6 42 2 29 1 33 -9 19 -7 -9 -10
-28 -7 -44 2 -15 1 -24 -3 -19 -5 4 -12 26 -16 50 l-6 42 -2 -39 c-1 -31 -4
-36 -14 -27 -8 6 -17 8 -20 4 -4 -3 -9 2 -13 11 -6 17 -34 23 -34 7 0 -17 -33
-5 -41 15 -7 17 -8 16 -9 -6 -1 -14 -4 -19 -7 -12 -2 6 -9 10 -14 6 -5 -3 -12
2 -15 10 -5 14 -8 14 -21 1 -8 -9 -19 -13 -24 -10 -5 4 -9 -2 -10 -12 0 -16
-1 -16 -9 2 -7 17 -9 16 -10 -10 l-2 -30 -14 35 -14 35 3 -37 c2 -20 -1 -34
-5 -32 -4 3 -8 15 -9 27 0 16 -2 18 -7 7 -4 -9 -14 -15 -22 -15 -8 0 -18 -4
-22 -10 -5 -6 -8 -5 -8 3 0 22 -27 -11 -33 -39 -4 -21 -4 -20 -6 6 l-2 30 -14
-30 -14 -30 5 30 c5 27 4 28 -7 10 -7 -11 -23 -31 -37 -45 l-25 -25 7 25 7 25
-20 -25 c-11 -14 -21 -32 -21 -40 0 -9 -6 -5 -15 10 l-14 25 -7 -33 c-5 -26
-9 -30 -20 -21 -11 9 -14 8 -14 -1 0 -8 -3 -10 -6 -7 -4 3 -16 1 -28 -5 -11
-7 -24 -12 -27 -13 -15 -1 -79 -66 -79 -81 0 -13 -3 -14 -15 -4 -13 10 -15 9
-15 -9 0 -14 -4 -20 -12 -15 -6 4 -17 -1 -25 -11 -9 -14 -13 -15 -13 -4 -1 10
-6 7 -19 -8 -10 -12 -21 -20 -24 -17 -3 3 -8 -4 -12 -15 -3 -12 -10 -19 -14
-17 -9 6 -161 -136 -161 -151 0 -15 -48 -46 -90 -59 -19 -6 -34 -16 -32 -23 1
-7 -2 -9 -9 -6 -6 4 -28 0 -48 -10 l-38 -17 -90 47 c-50 26 -115 53 -144 60
-30 8 -88 23 -129 35 -216 63 -355 92 -411 86 -31 -3 -64 -8 -75 -12 -18 -7
-18 -6 -1 12 16 17 32 19 145 18 120 -2 139 -5 347 -59 121 -31 259 -66 307
-77 128 -31 139 -26 279 124 202 215 325 312 527 412 163 82 328 133 497 156
50 6 97 13 105 15 45 9 274 3 400 -10z m389 -66 c-7 -4 -10 -12 -5 -16 4 -4
13 0 20 10 19 25 23 22 24 -28 2 -34 -1 -45 -13 -45 -22 0 -18 -21 5 -27 16
-4 18 -8 9 -19 -9 -11 -8 -14 5 -14 9 0 16 -6 17 -12 2 -43 11 -83 20 -95 9
-10 7 -13 -6 -13 -13 0 -15 -4 -8 -12 19 -24 24 -68 9 -74 -11 -4 -12 -13 -5
-37 5 -17 6 -40 3 -49 -3 -10 -1 -18 5 -18 6 0 11 -5 11 -11 0 -6 -7 -8 -16
-5 -14 5 -15 4 -4 -9 10 -12 10 -15 -1 -15 -8 0 -5 -6 7 -14 12 -9 21 -27 22
-43 1 -15 4 -39 8 -53 4 -14 7 -47 8 -73 0 -38 -5 -53 -26 -73 -49 -49 -148
-56 -265 -19 -101 32 -248 120 -240 144 1 3 -4 21 -12 38 -7 18 -11 43 -7 56
5 22 124 148 146 155 6 2 10 10 10 18 0 8 4 14 9 14 5 0 12 13 16 29 4 19 12
28 23 27 11 -1 16 5 14 16 -1 9 6 19 18 23 13 4 20 15 20 31 0 14 7 27 16 31
8 3 13 12 9 20 -3 11 -1 13 10 9 8 -3 15 -1 15 5 0 6 4 8 9 5 5 -3 12 5 15 19
4 14 13 25 21 25 13 0 16 9 15 35 -1 3 7 13 15 22 9 9 23 26 32 39 8 13 20 21
25 18 6 -4 5 -10 -3 -15z m342 -105 c14 -7 48 -21 76 -32 73 -28 283 -155 366
-222 85 -68 125 -110 161 -167 30 -49 34 -68 7 -36 -10 12 -22 19 -26 15 -5
-4 -5 -2 -2 5 12 19 -53 93 -145 164 -87 68 -248 159 -388 219 -41 17 -92 39
-112 48 -21 9 -38 19 -38 23 0 11 70 -1 101 -17z m44 -399 c55 -32 107 -63
115 -70 8 -7 62 -38 120 -67 58 -30 144 -79 192 -109 166 -103 431 -378 523
-543 67 -120 230 -526 212 -526 -3 0 -12 21 -22 48 -10 26 -30 74 -45 107 -75
162 -131 281 -140 295 -5 8 -16 30 -24 48 -9 18 -21 39 -28 46 -7 7 -33 37
-58 67 -69 82 -205 215 -312 305 -28 23 -149 102 -190 123 -15 8 -36 22 -45
31 -36 32 -176 120 -184 114 -5 -3 -12 3 -16 13 -10 27 -24 38 -77 62 -29 12
-58 18 -72 15 -16 -4 -24 -2 -24 6 0 7 -8 19 -17 26 -17 13 -17 14 0 8 26 -9
20 5 -7 16 -16 6 -25 19 -28 39 -4 28 -3 29 11 17 9 -8 61 -40 116 -71z
m-2845 -726 c14 -2 28 -8 32 -14 5 -6 8 -6 8 1 0 6 16 11 35 12 21 1 33 -3 30
-8 -3 -6 2 -10 12 -10 13 0 19 -8 21 -25 1 -14 -3 -25 -8 -25 -6 0 -10 -7 -10
-16 0 -8 -4 -12 -10 -9 -5 3 -10 1 -10 -5 0 -16 -78 -49 -101 -43 -10 3 -19
13 -19 23 0 10 -7 20 -15 24 -8 3 -14 9 -13 13 0 4 -4 21 -10 36 -16 37 -15
47 3 47 8 0 15 6 15 13 0 9 2 9 8 1 4 -7 18 -14 32 -15z m2523 -449 c46 -36
62 -107 62 -270 -1 -177 -21 -271 -94 -424 -27 -58 -46 -107 -43 -110 3 -3 27
-6 53 -6 40 0 51 -4 69 -27 19 -24 22 -37 18 -98 -6 -83 -30 -136 -98 -215
-85 -97 -137 -150 -149 -150 -6 0 -11 -5 -11 -10 0 -6 -11 -15 -25 -22 -13 -6
-22 -14 -20 -18 3 -5 -2 -10 -10 -14 -8 -3 -15 -12 -15 -20 0 -8 -8 -20 -17
-25 -17 -10 -17 -10 0 -11 32 0 -46 -58 -97 -72 -40 -11 -48 -10 -56 2 -15 23
-13 25 36 65 48 40 150 140 247 242 34 37 79 72 112 89 30 14 55 31 55 36 0
30 -133 -56 -200 -128 -25 -27 -65 -67 -90 -88 -25 -22 -44 -43 -43 -47 2 -5
-3 -6 -11 -3 -7 3 -19 -2 -26 -11 -7 -8 -16 -15 -21 -15 -5 0 -27 -11 -49 -25
-22 -14 -40 -22 -40 -18 0 5 -5 1 -10 -7 -9 -13 -11 -13 -20 0 -8 12 -10 13
-10 1 0 -8 -3 -11 -6 -8 -4 3 -15 2 -25 -3 -17 -10 -55 -16 -144 -25 -22 -2
-46 1 -54 8 -12 10 -14 9 -8 -5 6 -18 -3 -24 -16 -12 -11 11 -87 10 -92 -1 -3
-6 -7 -5 -11 2 -4 9 -11 10 -25 3 -17 -10 -18 -9 -7 15 8 19 9 28 0 37 -8 8
-9 5 -5 -12 5 -19 3 -22 -10 -17 -10 4 -17 2 -17 -5 0 -7 -5 -6 -15 2 -12 10
-15 9 -15 -5 0 -11 -5 -15 -15 -11 -9 3 -15 0 -15 -10 0 -8 -5 -12 -10 -9 -12
8 -3 46 14 58 14 9 -12 28 -34 25 -8 -2 -21 1 -29 6 -7 5 -16 5 -20 0 -11 -16
-52 -35 -61 -29 -6 4 -10 -5 -10 -19 0 -13 6 -26 13 -28 6 -3 -3 -5 -20 -5
-33 0 -44 11 -20 20 6 2 9 7 6 11 -3 3 -14 -3 -25 -13 -32 -29 -62 -43 -69
-31 -4 6 -11 8 -16 4 -5 -3 -6 -10 -3 -16 4 -7 -8 -8 -35 -4 -34 4 -41 3 -41
-12 0 -10 -3 -13 -8 -6 -11 17 -42 25 -43 11 0 -8 -2 -9 -5 -1 -4 8 -17 9 -47
2 -61 -13 -244 -4 -291 16 -21 9 -40 16 -43 16 -2 0 -11 7 -20 15 -8 8 -18 13
-23 10 -4 -3 -10 5 -13 16 -3 12 -10 18 -16 14 -6 -3 -11 -2 -11 2 0 5 -10 19
-22 33 -33 36 -50 74 -46 101 4 34 55 36 191 8 101 -21 115 -22 200 -10 84 12
248 65 323 104 l28 15 28 -49 c19 -33 41 -55 68 -69 48 -24 71 -25 116 -4 46
22 68 65 61 122 -15 135 -189 181 -243 63 -12 -26 -26 -41 -39 -42 -38 -4 -60
-6 -67 -9 -5 -1 -11 -3 -15 -5 -5 -1 -15 -5 -23 -8 -42 -18 -105 -37 -124 -37
-11 0 -34 -7 -49 -15 -16 -8 -51 -17 -78 -21 -27 -4 -52 -11 -55 -15 -9 -16
-127 -9 -161 9 -44 23 -175 153 -235 232 -107 139 -213 409 -231 585 -6 59 3
75 58 99 22 10 48 22 59 28 23 12 94 1 126 -21 14 -10 49 -30 78 -44 69 -36
192 -164 192 -201 0 -11 5 -14 12 -10 7 5 9 2 5 -8 -3 -10 0 -15 10 -14 14 1
20 -7 44 -54 4 -8 12 -14 18 -13 6 2 8 -4 5 -12 -4 -8 -2 -15 3 -15 14 0 72
-86 79 -118 16 -61 95 -226 129 -267 43 -54 69 -69 101 -61 27 7 54 52 54 92
0 26 1 27 52 20 29 -4 58 -12 64 -17 8 -7 14 -6 19 1 3 5 0 10 -7 10 -7 1 5 7
27 15 28 10 41 11 46 3 11 -17 50 -2 130 50 74 48 110 85 209 217 29 39 76 98
104 133 l51 64 22 -112 c26 -131 74 -237 116 -260 27 -14 29 -14 52 13 65 74
70 256 13 452 -11 39 -27 82 -35 96 -15 24 -13 29 65 140 88 125 151 191 197
207 51 18 110 14 138 -8z m1034 -587 c50 -40 113 -97 138 -125 63 -70 177
-219 172 -224 -2 -2 -27 26 -55 62 -77 101 -208 232 -317 319 -27 22 -51 43
-53 48 -2 4 -8 7 -13 7 -6 0 -24 14 -42 31 -30 30 -29 30 23 -6 30 -21 96 -71
147 -112z m-1488 -97 c7 -8 13 -30 15 -51 2 -20 8 -41 13 -46 12 -12 36 14 52
56 10 26 11 21 7 -38 -5 -94 -40 -130 -66 -67 -7 16 -21 32 -31 35 -21 7 -35
61 -25 100 7 28 18 32 35 11z m-958 -218 c7 -13 15 -36 19 -53 3 -16 15 -34
25 -40 11 -5 21 -18 23 -28 3 -16 0 -17 -17 -7 -12 6 -21 16 -21 21 0 6 -7 9
-15 6 -23 -9 -55 40 -55 84 0 45 22 53 41 17z m2789 -79 c15 -28 5 -23 -15 7
-9 15 -12 23 -6 20 6 -4 16 -16 21 -27z m74 -125 c3 -8 2 -12 -4 -9 -6 3 -10
10 -10 16 0 14 7 11 14 -7z m-424 -20 c100 -30 207 -158 315 -379 122 -249
125 -346 18 -559 -71 -141 -163 -266 -308 -416 -78 -80 -83 -89 -96 -150 -30
-152 -145 -312 -265 -371 -49 -24 -67 -29 -77 -20 -8 6 -18 7 -22 3 -5 -4 -5
1 -2 10 3 10 3 17 -1 17 -21 -3 -32 3 -32 18 0 17 27 53 40 53 22 0 230 207
230 229 0 4 16 22 35 41 23 23 35 43 35 61 0 15 5 31 10 34 6 4 8 11 5 16 -4
5 -1 9 5 9 7 0 10 5 8 12 -2 6 4 20 15 31 10 10 16 25 13 33 -3 7 3 18 12 23
9 6 12 11 6 11 -5 0 -15 -5 -21 -11 -10 -10 -31 -16 -68 -19 l-20 -1 20 -10
c15 -7 8 -8 -25 -5 -44 4 -44 4 -20 -10 l25 -15 -28 4 c-20 3 -27 1 -23 -9 3
-9 0 -11 -11 -7 -12 5 -14 3 -8 -7 6 -10 1 -12 -21 -7 -16 3 -23 4 -16 1 21
-10 13 -27 -10 -21 -22 6 -22 6 -4 -8 19 -15 19 -15 -5 -15 -19 0 -21 -2 -9
-10 11 -7 7 -10 -18 -10 -20 0 -31 -4 -27 -10 4 -6 -6 -10 -22 -10 -22 0 -25
-2 -13 -10 11 -7 6 -10 -20 -10 -23 0 -30 -3 -22 -9 17 -11 -40 -23 -65 -14
-11 5 -14 3 -8 -6 6 -10 2 -11 -16 -6 -22 7 -23 7 -9 -10 13 -17 13 -18 0 -10
-8 4 -24 15 -34 24 -18 15 -18 15 -7 -7 12 -22 11 -23 -5 -14 -11 6 -25 7 -35
1 -13 -7 -25 0 -50 29 -18 20 -30 29 -26 20 3 -10 2 -18 -4 -18 -6 0 -7 -5 -3
-11 4 -8 8 -8 13 0 4 6 12 2 20 -12 13 -20 13 -21 -2 -8 -10 7 -17 10 -17 6 0
-5 -9 0 -20 10 -22 20 -27 40 -7 29 6 -4 8 -3 4 1 -14 16 -36 14 -30 -3 4 -15
3 -15 -6 -2 -6 8 -16 15 -23 15 -7 0 -12 8 -12 18 2 15 -1 16 -14 5 -12 -10
-14 -10 -8 0 4 6 3 12 -3 12 -6 0 -7 7 -4 17 4 9 2 14 -4 10 -5 -3 -17 3 -26
13 -15 17 -14 19 1 23 12 3 10 5 -6 6 -13 0 -20 6 -17 11 3 6 1 10 -6 10 -7 0
-9 3 -6 7 4 3 2 12 -4 20 -6 7 -8 13 -5 13 4 0 -3 11 -16 24 -49 51 -68 78
-62 87 3 5 -2 9 -11 9 -9 0 -14 4 -11 8 3 5 -4 15 -15 22 -10 8 -19 18 -19 21
0 4 -12 20 -27 36 -16 16 -36 39 -45 51 -24 30 -33 28 -36 -10 -3 -43 -9 -46
-24 -12 -7 16 -44 75 -83 131 -63 92 -113 167 -140 211 -5 9 -15 21 -21 27 -6
5 -27 33 -46 60 -85 120 -100 177 -51 196 57 21 104 -11 189 -134 59 -84 212
-277 219 -277 3 0 25 15 49 34 24 18 55 36 69 39 22 6 25 13 30 73 6 64 5 68
-23 101 -65 73 -82 174 -42 249 40 78 229 221 329 250 41 12 87 15 183 12
l127 -3 46 42 c95 88 183 111 297 77z m494 -125 c4 -13 -4 -2 -18 24 -15 27
-26 51 -26 55 0 13 37 -54 44 -79z m35 -78 c0 -14 -1 -14 -6 -1 -3 8 -10 24
-15 35 -9 20 -9 20 6 1 9 -11 16 -27 15 -35z m-2569 -91 c0 -5 -4 -10 -10 -10
-5 0 -10 5 -10 10 0 6 5 10 10 10 6 0 10 -4 10 -10z m157 -338 c-3 -15 -16
-72 -31 -127 -45 -175 -52 -267 -32 -454 9 -90 21 -182 26 -205 21 -92 50
-260 50 -291 0 -27 -4 -33 -19 -32 -12 1 -17 6 -13 16 4 11 1 13 -13 8 -15 -6
-16 -5 -6 7 10 12 9 13 -8 9 -20 -5 -27 9 -22 40 0 4 -7 7 -17 7 -9 0 -23 9
-30 20 -7 12 -18 18 -24 14 -7 -4 -8 -3 -4 4 4 7 2 20 -4 29 -11 17 -11 17 -6
1 3 -10 1 -18 -4 -18 -4 0 -11 13 -15 30 -4 16 -11 30 -17 30 -5 0 -7 13 -3
33 l6 32 -19 -34 c-15 -26 -20 -30 -25 -17 -4 9 -1 16 6 16 8 0 7 4 -3 9 -8 6
-19 7 -25 3 -5 -3 -5 1 2 9 13 16 1 45 -15 35 -6 -4 -8 3 -5 16 4 22 4 22 -11
4 -16 -20 -41 -13 -32 10 11 28 -5 45 -35 39 -24 -5 -28 -4 -23 9 4 11 1 16
-10 16 -9 0 -16 8 -16 18 0 14 -2 15 -10 2 -5 -8 -10 -12 -11 -7 -1 4 -3 12
-4 17 -1 6 -3 17 -4 25 0 8 -8 15 -17 15 -8 0 -12 5 -9 11 4 6 -2 13 -13 16
-19 5 -38 53 -21 53 5 0 9 5 9 11 0 6 -7 9 -15 5 -10 -3 -15 1 -15 13 0 10 -9
21 -20 24 -11 3 -20 10 -20 16 0 6 7 8 16 4 14 -5 15 -3 5 15 -8 15 -8 22 2
25 7 3 5 6 -5 6 -10 1 -18 4 -18 7 0 4 8 13 18 20 16 13 16 13 -2 14 -17 0
-17 2 -2 24 9 14 14 39 12 56 -2 17 1 33 6 36 5 3 4 12 -3 20 -8 10 -8 14 0
14 6 0 11 9 11 20 0 56 45 113 113 142 9 4 17 11 17 16 0 20 81 62 156 81 118
30 156 38 192 38 31 1 34 -1 29 -25z m796 -531 c10 -17 41 -55 69 -86 51 -56
52 -58 50 -117 -1 -33 5 -87 12 -119 10 -43 11 -59 2 -63 -7 -3 -6 -8 4 -15
10 -7 11 -11 3 -11 -7 0 -13 -9 -13 -21 0 -11 -4 -18 -9 -14 -6 3 -10 -3 -10
-12 -1 -10 -1 -29 -2 -43 -2 -61 35 -185 52 -175 4 3 15 -8 24 -25 8 -16 22
-30 30 -30 8 0 19 -9 25 -20 6 -11 15 -18 21 -15 5 4 9 -2 9 -12 0 -14 2 -15
9 -4 11 17 51 -2 51 -25 0 -12 -8 -14 -37 -9 -152 26 -247 110 -294 261 -12
38 -26 83 -32 99 -41 108 -57 273 -37 365 12 51 40 120 49 120 4 0 15 -13 24
-29z m-1426 -11 c11 0 14 -7 11 -25 -3 -13 -2 -22 2 -20 4 3 6 -10 5 -28 -1
-17 2 -40 7 -51 8 -14 7 -17 -2 -11 -10 6 -11 -14 -8 -89 3 -53 1 -96 -3 -96
-5 0 -6 -8 -2 -17 5 -14 3 -15 -6 -7 -31 29 -64 330 -40 357 12 13 15 13 17 1
2 -8 10 -14 19 -14z m1836 -804 c4 -10 1 -13 -8 -9 -8 3 -12 9 -9 14 7 12 11
11 17 -5z"/>
<path d="M2141 4755 c1 -19 18 -51 18 -35 0 8 -4 22 -9 30 -5 8 -9 11 -9 5z"/>
<path d="M2256 4733 c-6 -14 -5 -15 5 -6 7 7 10 15 7 18 -3 3 -9 -2 -12 -12z"/>
<path d="M2371 4684 c0 -11 3 -14 6 -6 3 7 2 16 -1 19 -3 4 -6 -2 -5 -13z"/>
<path d="M3095 4791 c-3 -5 -1 -12 5 -16 5 -3 10 1 10 9 0 18 -6 21 -15 7z"/>
<path d="M3420 4306 c0 -9 5 -16 10 -16 6 0 10 4 10 9 0 6 -4 13 -10 16 -5 3
-10 -1 -10 -9z"/>
<path d="M2875 1760 c3 -5 8 -10 11 -10 2 0 4 5 4 10 0 6 -5 10 -11 10 -5 0
-7 -4 -4 -10z"/>
<path d="M2310 1739 c0 -5 5 -7 10 -4 6 3 10 8 10 11 0 2 -4 4 -10 4 -5 0 -10
-5 -10 -11z"/>
<path d="M3814 1453 c21 -37 239 -318 247 -317 5 1 16 2 25 3 8 0 13 5 9 10
-3 5 3 12 12 14 17 4 17 5 0 6 -10 0 -15 5 -12 11 3 5 -7 23 -24 39 -16 16
-27 32 -24 35 4 3 1 6 -6 6 -6 0 -32 20 -58 45 -25 25 -49 45 -53 45 -5 0 -10
3 -12 8 -2 4 -28 30 -57 57 -30 28 -51 45 -47 38z"/>
<path d="M3412 1223 c-17 -12 -25 -13 -37 -3 -8 6 -20 10 -27 8 -8 -3 0 -12
18 -21 17 -9 38 -26 46 -39 8 -13 30 -39 48 -58 28 -29 237 -257 260 -283 4
-4 17 -3 31 2 13 5 18 10 11 10 -7 1 -10 6 -7 11 3 6 2 10 -4 10 -5 0 -13 10
-17 23 -4 12 -15 29 -25 38 -10 9 -16 19 -12 23 3 3 -1 6 -10 6 -9 0 -17 4
-17 9 0 5 -18 27 -39 49 -22 22 -37 43 -34 46 4 3 -1 6 -11 6 -9 0 -15 4 -12
9 3 5 -1 11 -9 14 -8 4 -35 37 -61 76 -25 38 -51 72 -58 74 -6 2 -21 -2 -34
-10z"/>
<path d="M3930 766 c0 -2 8 -10 18 -17 15 -13 16 -12 3 4 -13 16 -21 21 -21
13z"/>
<path d="M4038 723 c7 -3 16 -2 19 1 4 3 -2 6 -13 5 -11 0 -14 -3 -6 -6z"/>
<path d="M3546 516 c7 -18 26 -17 30 2 1 7 0 8 -3 2 -3 -8 -9 -7 -19 1 -12 10
-13 9 -8 -5z"/>
</g>
</svg>
