<?xml version="1.0" standalone="no"?>
<!DOCTYPE svg PUBLIC "-//W3C//DTD SVG 20010904//EN"
 "http://www.w3.org/TR/2001/REC-SVG-20010904/DTD/svg10.dtd">
<svg version="1.0" xmlns="http://www.w3.org/2000/svg"
 width="297.000000pt" height="300.000000pt" viewBox="0 0 297.000000 300.000000"
 preserveAspectRatio="xMidYMid meet">

<g transform="translate(0.000000,300.000000) scale(0.100000,-0.100000)"
fill="#000000" stroke="none">
<path d="M10 2985 c-9 -11 46 -248 280 -1197 436 -1766 437 -1769 449 -1781 7
-7 17 -7 30 -1 10 5 484 457 1052 1004 568 547 1059 1020 1091 1050 59 56 64
65 50 87 -6 10 -2905 853 -2932 853 -4 0 -13 -7 -20 -15z m673 -245 c7 -6
-421 -430 -442 -438 -5 -1 -41 131 -81 295 -40 164 -75 303 -77 309 -4 12 585
-151 600 -166z m439 -122 c159 -46 288 -86 288 -89 0 -9 -440 -432 -445 -428
-12 13 -151 599 -141 599 6 0 140 -37 298 -82z m-299 -236 c41 -166 71 -302
68 -302 -8 0 -594 169 -596 172 -3 4 449 438 452 434 1 -1 36 -138 76 -304z
m1020 28 c158 -46 287 -86 287 -89 0 -9 -440 -434 -445 -430 -2 3 -36 133 -75
289 -39 157 -73 294 -77 304 -4 13 -1 18 8 14 8 -3 143 -42 302 -88z m-303
-227 c39 -161 70 -297 68 -301 -4 -11 -589 159 -586 170 4 10 440 429 444 426
1 -2 34 -135 74 -295z m1033 17 c158 -46 287 -86 287 -90 0 -3 -42 -46 -92
-95 -51 -49 -153 -147 -225 -219 -73 -71 -134 -127 -136 -125 -1 2 -37 143
-79 312 -62 254 -73 308 -59 304 9 -2 145 -41 304 -87z m-378 48 c3 -13 36
-149 74 -303 38 -154 69 -281 68 -281 -3 -3 -592 168 -597 172 -5 5 431 433
442 433 4 1 10 -9 13 -21z m-1617 -149 c160 -46 292 -86 292 -90 0 -9 -450
-442 -454 -438 -2 2 -36 135 -75 294 -39 160 -74 299 -77 309 -5 13 -2 18 7
14 8 -3 146 -43 307 -89z m730 -209 l292 -84 -192 -186 c-106 -103 -209 -201
-230 -218 l-36 -32 -72 292 c-39 161 -73 299 -76 307 -2 7 1 11 8 9 7 -2 145
-42 306 -88z m-304 -241 c41 -167 73 -305 72 -307 -7 -6 -606 172 -604 180 4
11 451 439 455 435 1 -2 36 -140 77 -308z m1029 31 c158 -46 287 -86 287 -90
0 -3 -102 -105 -227 -225 l-227 -219 -71 285 c-39 156 -75 297 -79 313 -6 24
-4 28 11 23 10 -2 147 -42 306 -87z m-310 -237 c41 -170 74 -309 73 -310 -2
-3 -600 169 -606 175 -5 4 441 441 451 442 3 0 40 -138 82 -307z m-960 -84
l289 -83 -84 -80 c-45 -44 -147 -143 -225 -220 -79 -77 -145 -138 -147 -135
-2 2 -37 140 -78 307 -61 245 -72 302 -59 298 9 -3 146 -42 304 -87z m757
-219 c135 -38 249 -71 253 -73 4 -1 -95 -101 -220 -222 l-228 -219 -72 290
c-39 159 -72 297 -72 306 -1 15 3 16 47 3 26 -8 157 -46 292 -85z m-337 -212
c40 -167 73 -304 73 -305 -1 -1 -137 37 -304 85 l-303 86 223 218 c123 119
226 217 230 217 3 1 40 -135 81 -301z m-235 -289 c160 -45 292 -86 292 -89 0
-9 -450 -440 -459 -440 -3 0 -40 134 -80 298 -41 163 -76 303 -79 311 -4 10 0
13 14 9 10 -3 151 -43 312 -89z"/>
</g>
</svg>
