<svg xmlns="http://www.w3.org/2000/svg" enable-background="new 0 0 72 72" viewBox="0 0 72 72" id="twitter">
  <switch>
    <g>
      <path d="M8.5,12.4C3,24,12.5,29.8,12.5,29.8c-3.1,0.3-5.9-1.5-5.9-1.5c0.8,11.1,10.5,12.8,10.5,12.8
			c-2.7,0.9-5.9,0.2-5.9,0.2c2.9,9.1,12.2,9,12.2,9C14.9,57.2,4,55.8,4,55.8c37.4,21.1,60-16.8,57.4-32.9c3.1-1.8,6.6-6.7,6.6-6.7
			c-4.5,1.9-7.5,2.1-7.5,2.1c4.4-2.5,5.8-7.2,5.8-7.2c-2.7,1.8-8.2,3.3-8.2,3.3c-2.4-2.6-5.8-4.2-9.6-4.2
			c-8.3-0.1-14.6,7.9-12.7,15.9C35.7,25.9,21,27,8.5,12.4z"></path>
    </g>
  </switch>
</svg>
